ffmpeg started on 2025-06-23 at 21:02:35
Report written to "D:\Convert\FFMetrics\reports\ssim_report-6.txt"
Log level: 32
Command line:
ffmpeg -hide_banner -nostdin -i "G:\\\xc0\xed\xe8\xec\xe5\\[\xd2\xee\xef-4]\\\xcc\xee\xe6\xe5\xf2, \xff \xe2\xf1\xf2\xf0\xe5\xf7\xf3 \xf2\xe5\xe1\xff \xe2 \xef\xee\xe4\xe7\xe5\xec\xe5\xeb\xfc\xe5\\\xd2\xc2-2\\Danmachi_Sword_Oratoria_[03]_[AniLibria_TV]_[HDTV-Rip]_HEVC.mkv" -i "G:\\\xc0\xed\xe8\xec\xe5\\[\xd2\xee\xef-4]\\\xcc\xee\xe6\xe5\xf2, \xff \xe2\xf1\xf2\xf0\xe5\xf7\xf3 \xf2\xe5\xe1\xff \xe2 \xef\xee\xe4\xe7\xe5\xec\xe5\xeb\xfc\xe5\\\xd2\xc2-2\\Danmachi_Sword_Oratoria_[03]_[AniLibria_TV]_[HDTV-Rip].mkv" -lavfi "[0:v]settb=AVTB,setpts=PTS-STARTPTS,format=pix_fmts=yuv420p10,fps=24000/1001,scale=1280:720:flags=bicubic[main];[1:v]settb=AVTB,setpts=PTS-STARTPTS,format=pix_fmts=yuv420p,fps=24000/1001,scale=1280:720:flags=bicubic[ref];[main][ref]ssim=eof_action=endall:stats_file='D\\:/Convert/FFMetrics/logs/ssim_logfile-6.txt'" -f null -
Input #0, matroska,webm, from 'G:\Аниме\[Топ-4]\Может, я встречу тебя в подземелье\ТВ-2\Danmachi_Sword_Oratoria_[03]_[AniLibria_TV]_[HDTV-Rip]_HEVC.mkv':
  Metadata:
    ENCODER         : Lavf61.7.100
  Duration: 00:23:59.81, start: -0.021000, bitrate: 927 kb/s
  Stream #0:0(jpn): Video: hevc (Main 10), yuv420p10le(tv, bt709, progressive), 1280x720 [SAR 1:1 DAR 16:9], 23.98 fps, 23.98 tbr, 1k tbn (default) (forced)
      Metadata:
        title           : Original
        ENCODER         : Lavc61.19.100 libx265
        BPS             : 728945
        DURATION        : 00:23:59.771708333
        NUMBER_OF_FRAMES: 34520
        NUMBER_OF_BYTES : 131189383
        _STATISTICS_WRITING_APP: mkvpropedit v66.0.0 ('Josie') 64-bit
        _STATISTICS_WRITING_DATE_UTC: 2025-06-23 10:16:15
        _STATISTICS_TAGS: BPS DURATION NUMBER_OF_FRAMES NUMBER_OF_BYTES
  Stream #0:1(rus): Audio: aac (LC), 48000 Hz, stereo, fltp (default) (forced)
      Metadata:
        title           : Leeannushka & Sharon
        ENCODER         : Lavc61.19.100 aac
        BPS             : 193934
        DURATION        : 00:23:59.786000000
        NUMBER_OF_FRAMES: 67491
        NUMBER_OF_BYTES : 34902959
        _STATISTICS_WRITING_APP: mkvpropedit v66.0.0 ('Josie') 64-bit
        _STATISTICS_WRITING_DATE_UTC: 2025-06-23 10:16:15
        _STATISTICS_TAGS: BPS DURATION NUMBER_OF_FRAMES NUMBER_OF_BYTES
  Stream #0:2(rus): Subtitle: ass (ssa) (default) (forced)
      Metadata:
        title           : Надписи
        BPS             : 66
        DURATION        : 00:23:17.020000000
        NUMBER_OF_FRAMES: 38
        NUMBER_OF_BYTES : 11694
        _STATISTICS_WRITING_APP: mkvpropedit v66.0.0 ('Josie') 64-bit
        _STATISTICS_WRITING_DATE_UTC: 2025-06-23 10:16:15
        _STATISTICS_TAGS: BPS DURATION NUMBER_OF_FRAMES NUMBER_OF_BYTES
  Stream #0:3(rus): Subtitle: ass (ssa)
      Metadata:
        title           : Субтитры
        BPS             : 198
        DURATION        : 00:23:47.570000000
        NUMBER_OF_FRAMES: 343
        NUMBER_OF_BYTES : 35393
        _STATISTICS_WRITING_APP: mkvpropedit v66.0.0 ('Josie') 64-bit
        _STATISTICS_WRITING_DATE_UTC: 2025-06-23 10:16:15
        _STATISTICS_TAGS: BPS DURATION NUMBER_OF_FRAMES NUMBER_OF_BYTES
Input #1, matroska,webm, from 'G:\Аниме\[Топ-4]\Может, я встречу тебя в подземелье\ТВ-2\Danmachi_Sword_Oratoria_[03]_[AniLibria_TV]_[HDTV-Rip].mkv':
  Metadata:
    encoder         : libebml v1.4.2 + libmatroska v1.6.4
    creation_time   : 2025-01-14T16:51:08.000000Z
  Duration: 00:23:59.79, start: 0.000000, bitrate: 2668 kb/s
  Stream #1:0(jpn): Video: h264 (High), yuv420p(tv, bt709, progressive), 1280x720 [SAR 1:1 DAR 16:9], 23.98 fps, 23.98 tbr, 1k tbn (default) (forced)
      Metadata:
        title           : Original
        BPS             : 2457283
        DURATION        : 00:23:59.772000000
        NUMBER_OF_FRAMES: 34520
        NUMBER_OF_BYTES : 442240994
        _STATISTICS_WRITING_APP: mkvmerge v66.0.0 ('Josie') 64-bit
        _STATISTICS_WRITING_DATE_UTC: 2025-01-14 16:51:08
        _STATISTICS_TAGS: BPS DURATION NUMBER_OF_FRAMES NUMBER_OF_BYTES
  Stream #1:1(rus): Audio: aac (LC), 48000 Hz, stereo, fltp (default) (forced)
      Metadata:
        title           : Leeannushka & Sharon
        BPS             : 192093
        DURATION        : 00:23:59.786000000
        NUMBER_OF_FRAMES: 67490
        NUMBER_OF_BYTES : 34571698
        _STATISTICS_WRITING_APP: mkvmerge v66.0.0 ('Josie') 64-bit
        _STATISTICS_WRITING_DATE_UTC: 2025-01-14 16:51:08
        _STATISTICS_TAGS: BPS DURATION NUMBER_OF_FRAMES NUMBER_OF_BYTES
  Stream #1:2(rus): Subtitle: ass (ssa) (default) (forced)
      Metadata:
        title           : Надписи
        BPS             : 66
        DURATION        : 00:23:17.020000000
        NUMBER_OF_FRAMES: 38
        NUMBER_OF_BYTES : 11694
        _STATISTICS_WRITING_APP: mkvmerge v66.0.0 ('Josie') 64-bit
        _STATISTICS_WRITING_DATE_UTC: 2025-01-14 16:51:08
        _STATISTICS_TAGS: BPS DURATION NUMBER_OF_FRAMES NUMBER_OF_BYTES
  Stream #1:3(rus): Subtitle: ass (ssa)
      Metadata:
        title           : Субтитры
        BPS             : 198
        DURATION        : 00:23:47.570000000
        NUMBER_OF_FRAMES: 343
        NUMBER_OF_BYTES : 35393
        _STATISTICS_WRITING_APP: mkvmerge v66.0.0 ('Josie') 64-bit
        _STATISTICS_WRITING_DATE_UTC: 2025-01-14 16:51:08
        _STATISTICS_TAGS: BPS DURATION NUMBER_OF_FRAMES NUMBER_OF_BYTES
  Stream #1:4: Attachment: ttf
      Metadata:
        filename        : times.ttf
        mimetype        : application/x-truetype-font
  Stream #1:5: Attachment: ttf
      Metadata:
        filename        : timesbd.ttf
        mimetype        : application/x-truetype-font
  Stream #1:6: Attachment: ttf
      Metadata:
        filename        : 7931.ttf
        mimetype        : application/x-truetype-font
  Stream #1:7: Attachment: ttf
      Metadata:
        filename        : segoescb.ttf
        mimetype        : application/x-truetype-font
Stream mapping:
  Stream #0:0 (hevc) -> settb:default
  Stream #1:0 (h264) -> settb:default
  ssim:default -> Stream #0:0 (wrapped_avframe)
  Stream #0:1 -> #0:1 (aac (native) -> pcm_s16le (native))
Output #0, null, to 'pipe:':
  Metadata:
    encoder         : Lavf61.7.100
  Stream #0:0: Video: wrapped_avframe, yuv420p10le(tv, bt709, progressive), 1280x720 [SAR 1:1 DAR 16:9], q=2-31, 200 kb/s, 23.98 fps, 23.98 tbn
      Metadata:
        encoder         : Lavc61.19.100 wrapped_avframe
  Stream #0:1(rus): Audio: pcm_s16le, 48000 Hz, stereo, s16, 1536 kb/s (default) (forced)
      Metadata:
        title           : Leeannushka & Sharon
        _STATISTICS_TAGS: BPS DURATION NUMBER_OF_FRAMES NUMBER_OF_BYTES
        BPS             : 193934
        DURATION        : 00:23:59.786000000
        NUMBER_OF_FRAMES: 67491
        NUMBER_OF_BYTES : 34902959
        _STATISTICS_WRITING_APP: mkvpropedit v66.0.0 ('Josie') 64-bit
        _STATISTICS_WRITING_DATE_UTC: 2025-06-23 10:16:15
        encoder         : Lavc61.19.100 pcm_s16le
frame=  507 fps=0.0 q=-0.0 size=N/A time=00:00:21.14 bitrate=N/A speed=40.7x    frame=  869 fps=843 q=-0.0 size=N/A time=00:00:36.24 bitrate=N/A speed=35.2x    frame= 1291 fps=830 q=-0.0 size=N/A time=00:00:53.84 bitrate=N/A speed=34.6x    frame= 1675 fps=811 q=-0.0 size=N/A time=00:01:09.86 bitrate=N/A speed=33.8x    frame= 2082 fps=808 q=-0.0 size=N/A time=00:01:26.83 bitrate=N/A speed=33.7x    frame= 2418 fps=779 q=-0.0 size=N/A time=00:01:40.85 bitrate=N/A speed=32.5x    frame= 2754 fps=763 q=-0.0 size=N/A time=00:01:54.86 bitrate=N/A speed=31.8x    frame= 3255 fps=790 q=-0.0 size=N/A time=00:02:15.76 bitrate=N/A speed=32.9x    frame= 3643 fps=784 q=-0.0 size=N/A time=00:02:31.94 bitrate=N/A speed=32.7x    frame= 4208 fps=816 q=-0.0 size=N/A time=00:02:55.50 bitrate=N/A speed=  34x    frame= 4804 fps=848 q=-0.0 size=N/A time=00:03:20.36 bitrate=N/A speed=35.4x    frame= 5379 fps=869 q=-0.0 size=N/A time=00:03:44.34 bitrate=N/A speed=36.2x    frame= 5970 fps=889 q=-0.0 size=N/A time=00:04:08.99 bitrate=N/A speed=37.1x    frame= 6469 fps=896 q=-0.0 size=N/A time=00:04:29.81 bitrate=N/A speed=37.4x    frame= 7040 fps=911 q=-0.0 size=N/A time=00:04:53.62 bitrate=N/A speed=  38x    frame= 7470 fps=904 q=-0.0 size=N/A time=00:05:11.56 bitrate=N/A speed=37.7x    frame= 7897 fps=899 q=-0.0 size=N/A time=00:05:29.37 bitrate=N/A speed=37.5x    frame= 8454 fps=909 q=-0.0 size=N/A time=00:05:52.60 bitrate=N/A speed=37.9x    frame= 9033 fps=921 q=-0.0 size=N/A time=00:06:16.75 bitrate=N/A speed=38.4x    frame= 9627 fps=932 q=-0.0 size=N/A time=00:06:41.52 bitrate=N/A speed=38.9x    frame=10247 fps=945 q=-0.0 size=N/A time=00:07:07.38 bitrate=N/A speed=39.4x    frame=10899 fps=959 q=-0.0 size=N/A time=00:07:34.57 bitrate=N/A speed=  40x    frame=11431 fps=962 q=-0.0 size=N/A time=00:07:56.76 bitrate=N/A speed=40.1x    frame=11945 fps=964 q=-0.0 size=N/A time=00:08:18.24 bitrate=N/A speed=40.2x    frame=12516 fps=969 q=-0.0 size=N/A time=00:08:42.02 bitrate=N/A speed=40.4x    frame=13055 fps=973 q=-0.0 size=N/A time=00:09:04.50 bitrate=N/A speed=40.6x    frame=13560 fps=973 q=-0.0 size=N/A time=00:09:25.56 bitrate=N/A speed=40.6x    frame=14085 fps=974 q=-0.0 size=N/A time=00:09:47.46 bitrate=N/A speed=40.6x    frame=14512 fps=970 q=-0.0 size=N/A time=00:10:05.27 bitrate=N/A speed=40.4x    frame=15051 fps=972 q=-0.0 size=N/A time=00:10:27.75 bitrate=N/A speed=40.5x    frame=15621 fps=977 q=-0.0 size=N/A time=00:10:51.52 bitrate=N/A speed=40.7x    frame=16095 fps=974 q=-0.0 size=N/A time=00:11:11.29 bitrate=N/A speed=40.6x    frame=16583 fps=974 q=-0.0 size=N/A time=00:11:31.64 bitrate=N/A speed=40.6x    frame=17157 fps=978 q=-0.0 size=N/A time=00:11:55.58 bitrate=N/A speed=40.8x    frame=17643 fps=976 q=-0.0 size=N/A time=00:12:15.86 bitrate=N/A speed=40.7x    frame=18187 fps=979 q=-0.0 size=N/A time=00:12:38.54 bitrate=N/A speed=40.8x    frame=18640 fps=976 q=-0.0 size=N/A time=00:12:57.44 bitrate=N/A speed=40.7x    frame=19170 fps=977 q=-0.0 size=N/A time=00:13:19.54 bitrate=N/A speed=40.8x    frame=19623 fps=975 q=-0.0 size=N/A time=00:13:38.44 bitrate=N/A speed=40.7x    frame=19974 fps=967 q=-0.0 size=N/A time=00:13:53.08 bitrate=N/A speed=40.3x    frame=20305 fps=960 q=-0.0 size=N/A time=00:14:06.88 bitrate=N/A speed=  40x    frame=20809 fps=960 q=-0.0 size=N/A time=00:14:27.90 bitrate=N/A speed=  40x    frame=21233 fps=956 q=-0.0 size=N/A time=00:14:45.59 bitrate=N/A speed=39.9x    frame=21666 fps=953 q=-0.0 size=N/A time=00:15:03.65 bitrate=N/A speed=39.8x    frame=22134 fps=953 q=-0.0 size=N/A time=00:15:23.17 bitrate=N/A speed=39.7x    frame=22522 fps=948 q=-0.0 size=N/A time=00:15:39.35 bitrate=N/A speed=39.6x    frame=22987 fps=947 q=-0.0 size=N/A time=00:15:58.74 bitrate=N/A speed=39.5x    frame=23310 fps=941 q=-0.0 size=N/A time=00:16:12.22 bitrate=N/A speed=39.2x    frame=23727 fps=938 q=-0.0 size=N/A time=00:16:29.61 bitrate=N/A speed=39.1x    frame=24119 fps=934 q=-0.0 size=N/A time=00:16:45.96 bitrate=N/A speed=38.9x    frame=24459 fps=928 q=-0.0 size=N/A time=00:17:00.14 bitrate=N/A speed=38.7x    frame=24930 fps=928 q=-0.0 size=N/A time=00:17:19.78 bitrate=N/A speed=38.7x    frame=25381 fps=927 q=-0.0 size=N/A time=00:17:38.59 bitrate=N/A speed=38.7x    frame=25812 fps=926 q=-0.0 size=N/A time=00:17:56.57 bitrate=N/A speed=38.6x    frame=26296 fps=925 q=-0.0 size=N/A time=00:18:16.76 bitrate=N/A speed=38.6x    frame=26773 fps=926 q=-0.0 size=N/A time=00:18:36.65 bitrate=N/A speed=38.6x    frame=27199 fps=924 q=-0.0 size=N/A time=00:18:54.42 bitrate=N/A speed=38.5x    frame=27527 fps=919 q=-0.0 size=N/A time=00:19:08.10 bitrate=N/A speed=38.3x    frame=27875 fps=915 q=-0.0 size=N/A time=00:19:22.61 bitrate=N/A speed=38.2x    frame=28322 fps=914 q=-0.0 size=N/A time=00:19:41.26 bitrate=N/A speed=38.1x    frame=28777 fps=913 q=-0.0 size=N/A time=00:20:00.24 bitrate=N/A speed=38.1x    frame=29297 fps=915 q=-0.0 size=N/A time=00:20:21.92 bitrate=N/A speed=38.2x    frame=29784 fps=915 q=-0.0 size=N/A time=00:20:42.24 bitrate=N/A speed=38.2x    frame=30310 fps=917 q=-0.0 size=N/A time=00:21:04.17 bitrate=N/A speed=38.3x    frame=30835 fps=919 q=-0.0 size=N/A time=00:21:26.07 bitrate=N/A speed=38.3x    frame=31399 fps=922 q=-0.0 size=N/A time=00:21:49.59 bitrate=N/A speed=38.4x    frame=32015 fps=925 q=-0.0 size=N/A time=00:22:15.29 bitrate=N/A speed=38.6x    frame=32559 fps=927 q=-0.0 size=N/A time=00:22:37.98 bitrate=N/A speed=38.7x    frame=33058 fps=928 q=-0.0 size=N/A time=00:22:58.79 bitrate=N/A speed=38.7x    frame=33522 fps=928 q=-0.0 size=N/A time=00:23:18.14 bitrate=N/A speed=38.7x    frame=34062 fps=929 q=-0.0 size=N/A time=00:23:40.66 bitrate=N/A speed=38.8x    [Parsed_ssim_10 @ 000001df367dc5c0] SSIM Y:0.989389 (19.742470) U:0.990519 (20.231580) V:0.991551 (20.732001) All:0.989938 (19.973063)
[out#0/null @ 000001df336fc080] video:14833KiB audio:269964KiB subtitle:0KiB other streams:0KiB global headers:0KiB muxing overhead: unknown
frame=34520 fps=930 q=-0.0 Lsize=N/A time=00:23:59.77 bitrate=N/A speed=38.8x    
